<svg width="156" height="19" viewBox="0 0 156 19" fill="none" xmlns="http://www.w3.org/2000/svg">
<path d="M9.456 18.168C7.872 18.168 6.416 17.8 5.088 17.064C3.776 16.328 2.728 15.304 1.944 13.992C1.176 12.664 0.792 11.176 0.792 9.528C0.792 7.88 1.176 6.4 1.944 5.088C2.728 3.776 3.776 2.752 5.088 2.016C6.416 1.28 7.872 0.912 9.456 0.912C11.04 0.912 12.488 1.28 13.8 2.016C15.128 2.752 16.168 3.776 16.92 5.088C17.688 6.4 18.072 7.88 18.072 9.528C18.072 11.176 17.688 12.664 16.92 13.992C16.152 15.304 15.112 16.328 13.8 17.064C12.488 17.8 11.04 18.168 9.456 18.168ZM9.456 14.424C10.8 14.424 11.872 13.976 12.672 13.08C13.488 12.184 13.896 11 13.896 9.528C13.896 8.04 13.488 6.856 12.672 5.976C11.872 5.08 10.8 4.632 9.456 4.632C8.096 4.632 7.008 5.072 6.192 5.952C5.392 6.832 4.992 8.024 4.992 9.528C4.992 11.016 5.392 12.208 6.192 13.104C7.008 13.984 8.096 14.424 9.456 14.424ZM33.5792 4.608V18H29.4752V16.176C29.0592 16.768 28.4912 17.248 27.7712 17.616C27.0672 17.968 26.2832 18.144 25.4192 18.144C24.3952 18.144 23.4912 17.92 22.7072 17.472C21.9232 17.008 21.3152 16.344 20.8832 15.48C20.4512 14.616 20.2352 13.6 20.2352 12.432V4.608H24.3152V11.88C24.3152 12.776 24.5472 13.472 25.0112 13.968C25.4752 14.464 26.0992 14.712 26.8832 14.712C27.6832 14.712 28.3152 14.464 28.7792 13.968C29.2432 13.472 29.4752 12.776 29.4752 11.88V4.608H33.5792ZM40.6311 6.84C41.1111 6.104 41.7111 5.528 42.4311 5.112C43.1511 4.68 43.9511 4.464 44.8311 4.464V8.808H43.7031C42.6791 8.808 41.9111 9.032 41.3991 9.48C40.8871 9.912 40.6311 10.68 40.6311 11.784V18H36.5271V4.608H40.6311V6.84ZM64.7186 6.576C64.7186 7.552 64.4946 8.448 64.0466 9.264C63.5986 10.064 62.9106 10.712 61.9826 11.208C61.0546 11.704 59.9026 11.952 58.5266 11.952H55.9826V18H51.8786V1.152H58.5266C59.8706 1.152 61.0066 1.384 61.9346 1.848C62.8626 2.312 63.5586 2.952 64.0226 3.768C64.4866 4.584 64.7186 5.52 64.7186 6.576ZM58.2146 8.688C58.9986 8.688 59.5826 8.504 59.9666 8.136C60.3506 7.768 60.5426 7.248 60.5426 6.576C60.5426 5.904 60.3506 5.384 59.9666 5.016C59.5826 4.648 58.9986 4.464 58.2146 4.464H55.9826V8.688H58.2146ZM66.0392 11.28C66.0392 9.904 66.2952 8.696 66.8072 7.656C67.3352 6.616 68.0472 5.816 68.9432 5.256C69.8392 4.696 70.8392 4.416 71.9432 4.416C72.8872 4.416 73.7112 4.608 74.4152 4.992C75.1352 5.376 75.6872 5.88 76.0712 6.504V4.608H80.1752V18H76.0712V16.104C75.6712 16.728 75.1112 17.232 74.3912 17.616C73.6872 18 72.8632 18.192 71.9192 18.192C70.8312 18.192 69.8392 17.912 68.9432 17.352C68.0472 16.776 67.3352 15.968 66.8072 14.928C66.2952 13.872 66.0392 12.656 66.0392 11.28ZM76.0712 11.304C76.0712 10.28 75.7832 9.472 75.2072 8.88C74.6472 8.288 73.9592 7.992 73.1432 7.992C72.3272 7.992 71.6312 8.288 71.0552 8.88C70.4952 9.456 70.2152 10.256 70.2152 11.28C70.2152 12.304 70.4952 13.12 71.0552 13.728C71.6312 14.32 72.3272 14.616 73.1432 14.616C73.9592 14.616 74.6472 14.32 75.2072 13.728C75.7832 13.136 76.0712 12.328 76.0712 11.304ZM87.2483 6.84C87.7283 6.104 88.3283 5.528 89.0483 5.112C89.7683 4.68 90.5683 4.464 91.4483 4.464V8.808H90.3203C89.2963 8.808 88.5283 9.032 88.0163 9.48C87.5043 9.912 87.2483 10.68 87.2483 11.784V18H83.1443V4.608H87.2483V6.84ZM100.874 14.52V18H98.7859C97.2979 18 96.1379 17.64 95.3059 16.92C94.4739 16.184 94.0579 14.992 94.0579 13.344V8.016H92.4259V4.608H94.0579V1.344H98.1619V4.608H100.85V8.016H98.1619V13.392C98.1619 13.792 98.2579 14.08 98.4499 14.256C98.6419 14.432 98.9619 14.52 99.4099 14.52H100.874ZM111.32 4.464C112.888 4.464 114.136 4.976 115.064 6C116.008 7.008 116.48 8.4 116.48 10.176V18H112.4V10.728C112.4 9.832 112.168 9.136 111.704 8.64C111.24 8.144 110.616 7.896 109.832 7.896C109.048 7.896 108.424 8.144 107.96 8.64C107.496 9.136 107.264 9.832 107.264 10.728V18H103.16V4.608H107.264V6.384C107.68 5.792 108.24 5.328 108.944 4.992C109.648 4.64 110.44 4.464 111.32 4.464ZM131.956 11.088C131.956 11.472 131.932 11.872 131.884 12.288H122.596C122.66 13.12 122.924 13.76 123.388 14.208C123.868 14.64 124.452 14.856 125.14 14.856C126.164 14.856 126.876 14.424 127.276 13.56H131.644C131.42 14.44 131.012 15.232 130.42 15.936C129.844 16.64 129.116 17.192 128.236 17.592C127.356 17.992 126.372 18.192 125.284 18.192C123.972 18.192 122.804 17.912 121.78 17.352C120.756 16.792 119.956 15.992 119.38 14.952C118.804 13.912 118.516 12.696 118.516 11.304C118.516 9.912 118.796 8.696 119.356 7.656C119.932 6.616 120.732 5.816 121.756 5.256C122.78 4.696 123.956 4.416 125.284 4.416C126.58 4.416 127.732 4.688 128.74 5.232C129.748 5.776 130.532 6.552 131.092 7.56C131.668 8.568 131.956 9.744 131.956 11.088ZM127.756 10.008C127.756 9.304 127.516 8.744 127.036 8.328C126.556 7.912 125.956 7.704 125.236 7.704C124.548 7.704 123.964 7.904 123.484 8.304C123.02 8.704 122.732 9.272 122.62 10.008H127.756ZM138.225 6.84C138.705 6.104 139.305 5.528 140.025 5.112C140.745 4.68 141.545 4.464 142.425 4.464V8.808H141.297C140.273 8.808 139.505 9.032 138.993 9.48C138.481 9.912 138.225 10.68 138.225 11.784V18H134.121V4.608H138.225V6.84ZM149.834 18.192C148.666 18.192 147.626 17.992 146.714 17.592C145.802 17.192 145.082 16.648 144.554 15.96C144.026 15.256 143.73 14.472 143.666 13.608H147.722C147.77 14.072 147.986 14.448 148.37 14.736C148.754 15.024 149.226 15.168 149.786 15.168C150.298 15.168 150.69 15.072 150.962 14.88C151.25 14.672 151.394 14.408 151.394 14.088C151.394 13.704 151.194 13.424 150.794 13.248C150.394 13.056 149.746 12.848 148.85 12.624C147.89 12.4 147.09 12.168 146.45 11.928C145.81 11.672 145.258 11.28 144.794 10.752C144.33 10.208 144.098 9.48 144.098 8.568C144.098 7.8 144.306 7.104 144.722 6.48C145.154 5.84 145.778 5.336 146.594 4.968C147.426 4.6 148.41 4.416 149.546 4.416C151.226 4.416 152.546 4.832 153.506 5.664C154.482 6.496 155.042 7.6 155.186 8.976H151.394C151.33 8.512 151.122 8.144 150.77 7.872C150.434 7.6 149.986 7.464 149.426 7.464C148.946 7.464 148.578 7.56 148.322 7.752C148.066 7.928 147.938 8.176 147.938 8.496C147.938 8.88 148.138 9.168 148.538 9.36C148.954 9.552 149.594 9.744 150.458 9.936C151.45 10.192 152.258 10.448 152.882 10.704C153.506 10.944 154.05 11.344 154.514 11.904C154.994 12.448 155.242 13.184 155.258 14.112C155.258 14.896 155.034 15.6 154.586 16.224C154.154 16.832 153.522 17.312 152.69 17.664C151.874 18.016 150.922 18.192 149.834 18.192Z" fill="#056088"/>
</svg>
